<?xml version="1.0" encoding="utf-8" standalone="no"?>
<!DOCTYPE svg PUBLIC "-//W3C//DTD SVG 1.1//EN"
  "http://www.w3.org/Graphics/SVG/1.1/DTD/svg11.dtd">
<svg xmlns:xlink="http://www.w3.org/1999/xlink" width="720pt" height="504pt" viewBox="0 0 720 504" xmlns="http://www.w3.org/2000/svg" version="1.1">
 <metadata>
  <rdf:RDF xmlns:dc="http://purl.org/dc/elements/1.1/" xmlns:cc="http://creativecommons.org/ns#" xmlns:rdf="http://www.w3.org/1999/02/22-rdf-syntax-ns#">
   <cc:Work>
    <dc:type rdf:resource="http://purl.org/dc/dcmitype/StillImage"/>
    <dc:date>2026-08-20T14:22:23.115869</dc:date>
    <dc:format>image/svg+xml</dc:format>
    <dc:creator>
     <cc:Agent>
      <dc:title>Matplotlib v3.11.1, https://matplotlib.org/</dc:title>
     </cc:Agent>
    </dc:creator>
   </cc:Work>
  </rdf:RDF>
 </metadata>
 <defs>
  <style type="text/css">*{stroke-linejoin: round; stroke-linecap: butt}</style>
 </defs>
 <g id="figure_1">
  <g id="patch_1">
   <path d="M 0 504 
L 720 504 
L 720 0 
L 0 0 
z
" style="fill: #ffffff"/>
  </g>
  <g id="axes_1">
   <g id="patch_2">
    <path d="M 45.082344 462.2 
L 700.37382 462.2 
L 700.37382 27.436719 
L 45.082344 27.436719 
z
" style="fill: #ffffff"/>
   </g>
   <g id="matplotlib.axis_1">
    <g id="xtick_1">
     <g id="line2d_1">
      <path d="M 98.39193 462.2 
L 98.39193 27.436719 
" clip-path="url(#p81ee71c49e)" style="fill: none; stroke: #b0b0b0; stroke-opacity: 0.3; stroke-width: 0.8; stroke-linecap: square"/>
     </g>
     <g id="line2d_2">
      <defs>
       <path id="m1e621e3ccf" d="M 0 0 
L 0 3.5 
" style="stroke: #000000; stroke-width: 0.8"/>
      </defs>
      <g>
       <use xlink:href="#m1e621e3ccf" x="98.39193" y="462.2" style="stroke: #000000; stroke-width: 0.8"/>
      </g>
     </g>
     <g id="text_1">
      <!-- 1992 -->
      <g transform="translate(85.66693 476.797656) scale(0.1 -0.1)">
       <defs>
        <path id="DejaVuSans-14" d="M 794 531 
L 1825 531 
L 1825 4091 
L 703 3866 
L 703 4441 
L 1819 4666 
L 2450 4666 
L 2450 531 
L 3481 531 
L 3481 0 
L 794 0 
L 794 531 
z
" transform="scale(0.015625)"/>
        <path id="DejaVuSans-1c" d="M 703 97 
L 703 672 
Q 941 559 1184 500 
Q 1428 441 1663 441 
Q 2288 441 2617 861 
Q 2947 1281 2994 2138 
Q 2813 1869 2534 1725 
Q 2256 1581 1919 1581 
Q 1219 1581 811 2004 
Q 403 2428 403 3163 
Q 403 3881 828 4315 
Q 1253 4750 1959 4750 
Q 2769 4750 3195 4129 
Q 3622 3509 3622 2328 
Q 3622 1225 3098 567 
Q 2575 -91 1691 -91 
Q 1453 -91 1209 -44 
Q 966 3 703 97 
z
M 1959 2075 
Q 2384 2075 2632 2365 
Q 2881 2656 2881 3163 
Q 2881 3666 2632 3958 
Q 2384 4250 1959 4250 
Q 1534 4250 1286 3958 
Q 1038 3666 1038 3163 
Q 1038 2656 1286 2365 
Q 1534 2075 1959 2075 
z
" transform="scale(0.015625)"/>
        <path id="DejaVuSans-15" d="M 1228 531 
L 3431 531 
L 3431 0 
L 469 0 
L 469 531 
Q 828 903 1448 1529 
Q 2069 2156 2228 2338 
Q 2531 2678 2651 2914 
Q 2772 3150 2772 3378 
Q 2772 3750 2511 3984 
Q 2250 4219 1831 4219 
Q 1534 4219 1204 4116 
Q 875 4013 500 3803 
L 500 4441 
Q 881 4594 1212 4672 
Q 1544 4750 1819 4750 
Q 2544 4750 2975 4387 
Q 3406 4025 3406 3419 
Q 3406 3131 3298 2873 
Q 3191 2616 2906 2266 
Q 2828 2175 2409 1742 
Q 1991 1309 1228 531 
z
" transform="scale(0.015625)"/>
       </defs>
       <use xlink:href="#DejaVuSans-14"/>
       <use xlink:href="#DejaVuSans-1c" transform="translate(63.625 0)"/>
       <use xlink:href="#DejaVuSans-1c" transform="translate(127.25 0)"/>
       <use xlink:href="#DejaVuSans-15" transform="translate(190.875 0)"/>
      </g>
     </g>
    </g>
    <g id="xtick_2">
     <g id="line2d_3">
      <path d="M 164.739408 462.2 
L 164.739408 27.436719 
" clip-path="url(#p81ee71c49e)" style="fill: none; stroke: #b0b0b0; stroke-opacity: 0.3; stroke-width: 0.8; stroke-linecap: square"/>
     </g>
     <g id="line2d_4">
      <g>
       <use xlink:href="#m1e621e3ccf" x="164.739408" y="462.2" style="stroke: #000000; stroke-width: 0.8"/>
      </g>
     </g>
     <g id="text_2">
      <!-- 1996 -->
      <g transform="translate(152.014408 476.797656) scale(0.1 -0.1)">
       <defs>
        <path id="DejaVuSans-19" d="M 2113 2584 
Q 1688 2584 1439 2293 
Q 1191 2003 1191 1497 
Q 1191 994 1439 701 
Q 1688 409 2113 409 
Q 2538 409 2786 701 
Q 3034 994 3034 1497 
Q 3034 2003 2786 2293 
Q 2538 2584 2113 2584 
z
M 3366 4563 
L 3366 3988 
Q 3128 4100 2886 4159 
Q 2644 4219 2406 4219 
Q 1781 4219 1451 3797 
Q 1122 3375 1075 2522 
Q 1259 2794 1537 2939 
Q 1816 3084 2150 3084 
Q 2853 3084 3261 2657 
Q 3669 2231 3669 1497 
Q 3669 778 3244 343 
Q 2819 -91 2113 -91 
Q 1303 -91 875 529 
Q 447 1150 447 2328 
Q 447 3434 972 4092 
Q 1497 4750 2381 4750 
Q 2619 4750 2861 4703 
Q 3103 4656 3366 4563 
z
" transform="scale(0.015625)"/>
       </defs>
       <use xlink:href="#DejaVuSans-14"/>
       <use xlink:href="#DejaVuSans-1c" transform="translate(63.625 0)"/>
       <use xlink:href="#DejaVuSans-1c" transform="translate(127.25 0)"/>
       <use xlink:href="#DejaVuSans-19" transform="translate(190.875 0)"/>
      </g>
     </g>
    </g>
    <g id="xtick_3">
     <g id="line2d_5">
      <path d="M 231.086887 462.2 
L 231.086887 27.436719 
" clip-path="url(#p81ee71c49e)" style="fill: none; stroke: #b0b0b0; stroke-opacity: 0.3; stroke-width: 0.8; stroke-linecap: square"/>
     </g>
     <g id="line2d_6">
      <g>
       <use xlink:href="#m1e621e3ccf" x="231.086887" y="462.2" style="stroke: #000000; stroke-width: 0.8"/>
      </g>
     </g>
     <g id="text_3">
      <!-- 2000 -->
      <g transform="translate(218.361887 476.797656) scale(0.1 -0.1)">
       <defs>
        <path id="DejaVuSans-13" d="M 2034 4250 
Q 1547 4250 1301 3770 
Q 1056 3291 1056 2328 
Q 1056 1369 1301 889 
Q 1547 409 2034 409 
Q 2525 409 2770 889 
Q 3016 1369 3016 2328 
Q 3016 3291 2770 3770 
Q 2525 4250 2034 4250 
z
M 2034 4750 
Q 2819 4750 3233 4129 
Q 3647 3509 3647 2328 
Q 3647 1150 3233 529 
Q 2819 -91 2034 -91 
Q 1250 -91 836 529 
Q 422 1150 422 2328 
Q 422 3509 836 4129 
Q 1250 4750 2034 4750 
z
" transform="scale(0.015625)"/>
       </defs>
       <use xlink:href="#DejaVuSans-15"/>
       <use xlink:href="#DejaVuSans-13" transform="translate(63.625 0)"/>
       <use xlink:href="#DejaVuSans-13" transform="translate(127.25 0)"/>
       <use xlink:href="#DejaVuSans-13" transform="translate(190.875 0)"/>
      </g>
     </g>
    </g>
    <g id="xtick_4">
     <g id="line2d_7">
      <path d="M 297.434366 462.2 
L 297.434366 27.436719 
" clip-path="url(#p81ee71c49e)" style="fill: none; stroke: #b0b0b0; stroke-opacity: 0.3; stroke-width: 0.8; stroke-linecap: square"/>
     </g>
     <g id="line2d_8">
      <g>
       <use xlink:href="#m1e621e3ccf" x="297.434366" y="462.2" style="stroke: #000000; stroke-width: 0.8"/>
      </g>
     </g>
     <g id="text_4">
      <!-- 2004 -->
      <g transform="translate(284.709366 476.797656) scale(0.1 -0.1)">
       <defs>
        <path id="DejaVuSans-17" d="M 2419 4116 
L 825 1625 
L 2419 1625 
L 2419 4116 
z
M 2253 4666 
L 3047 4666 
L 3047 1625 
L 3713 1625 
L 3713 1100 
L 3047 1100 
L 3047 0 
L 2419 0 
L 2419 1100 
L 313 1100 
L 313 1709 
L 2253 4666 
z
" transform="scale(0.015625)"/>
       </defs>
       <use xlink:href="#DejaVuSans-15"/>
       <use xlink:href="#DejaVuSans-13" transform="translate(63.625 0)"/>
       <use xlink:href="#DejaVuSans-13" transform="translate(127.25 0)"/>
       <use xlink:href="#DejaVuSans-17" transform="translate(190.875 0)"/>
      </g>
     </g>
    </g>
    <g id="xtick_5">
     <g id="line2d_9">
      <path d="M 363.781844 462.2 
L 363.781844 27.436719 
" clip-path="url(#p81ee71c49e)" style="fill: none; stroke: #b0b0b0; stroke-opacity: 0.3; stroke-width: 0.8; stroke-linecap: square"/>
     </g>
     <g id="line2d_10">
      <g>
       <use xlink:href="#m1e621e3ccf" x="363.781844" y="462.2" style="stroke: #000000; stroke-width: 0.8"/>
      </g>
     </g>
     <g id="text_5">
      <!-- 2008 -->
      <g transform="translate(351.056844 476.797656) scale(0.1 -0.1)">
       <defs>
        <path id="DejaVuSans-1b" d="M 2034 2216 
Q 1584 2216 1326 1975 
Q 1069 1734 1069 1313 
Q 1069 891 1326 650 
Q 1584 409 2034 409 
Q 2484 409 2743 651 
Q 3003 894 3003 1313 
Q 3003 1734 2745 1975 
Q 2488 2216 2034 2216 
z
M 1403 2484 
Q 997 2584 770 2862 
Q 544 3141 544 3541 
Q 544 4100 942 4425 
Q 1341 4750 2034 4750 
Q 2731 4750 3128 4425 
Q 3525 4100 3525 3541 
Q 3525 3141 3298 2862 
Q 3072 2584 2669 2484 
Q 3125 2378 3379 2068 
Q 3634 1759 3634 1313 
Q 3634 634 3220 271 
Q 2806 -91 2034 -91 
Q 1263 -91 848 271 
Q 434 634 434 1313 
Q 434 1759 690 2068 
Q 947 2378 1403 2484 
z
M 1172 3481 
Q 1172 3119 1398 2916 
Q 1625 2713 2034 2713 
Q 2441 2713 2670 2916 
Q 2900 3119 2900 3481 
Q 2900 3844 2670 4047 
Q 2441 4250 2034 4250 
Q 1625 4250 1398 4047 
Q 1172 3844 1172 3481 
z
" transform="scale(0.015625)"/>
       </defs>
       <use xlink:href="#DejaVuSans-15"/>
       <use xlink:href="#DejaVuSans-13" transform="translate(63.625 0)"/>
       <use xlink:href="#DejaVuSans-13" transform="translate(127.25 0)"/>
       <use xlink:href="#DejaVuSans-1b" transform="translate(190.875 0)"/>
      </g>
     </g>
    </g>
    <g id="xtick_6">
     <g id="line2d_11">
      <path d="M 430.129323 462.2 
L 430.129323 27.436719 
" clip-path="url(#p81ee71c49e)" style="fill: none; stroke: #b0b0b0; stroke-opacity: 0.3; stroke-width: 0.8; stroke-linecap: square"/>
     </g>
     <g id="line2d_12">
      <g>
       <use xlink:href="#m1e621e3ccf" x="430.129323" y="462.2" style="stroke: #000000; stroke-width: 0.8"/>
      </g>
     </g>
     <g id="text_6">
      <!-- 2012 -->
      <g transform="translate(417.404323 476.797656) scale(0.1 -0.1)">
       <use xlink:href="#DejaVuSans-15"/>
       <use xlink:href="#DejaVuSans-13" transform="translate(63.625 0)"/>
       <use xlink:href="#DejaVuSans-14" transform="translate(127.25 0)"/>
       <use xlink:href="#DejaVuSans-15" transform="translate(190.875 0)"/>
      </g>
     </g>
    </g>
    <g id="xtick_7">
     <g id="line2d_13">
      <path d="M 496.476802 462.2 
L 496.476802 27.436719 
" clip-path="url(#p81ee71c49e)" style="fill: none; stroke: #b0b0b0; stroke-opacity: 0.3; stroke-width: 0.8; stroke-linecap: square"/>
     </g>
     <g id="line2d_14">
      <g>
       <use xlink:href="#m1e621e3ccf" x="496.476802" y="462.2" style="stroke: #000000; stroke-width: 0.8"/>
      </g>
     </g>
     <g id="text_7">
      <!-- 2016 -->
      <g transform="translate(483.751802 476.797656) scale(0.1 -0.1)">
       <use xlink:href="#DejaVuSans-15"/>
       <use xlink:href="#DejaVuSans-13" transform="translate(63.625 0)"/>
       <use xlink:href="#DejaVuSans-14" transform="translate(127.25 0)"/>
       <use xlink:href="#DejaVuSans-19" transform="translate(190.875 0)"/>
      </g>
     </g>
    </g>
    <g id="xtick_8">
     <g id="line2d_15">
      <path d="M 562.82428 462.2 
L 562.82428 27.436719 
" clip-path="url(#p81ee71c49e)" style="fill: none; stroke: #b0b0b0; stroke-opacity: 0.3; stroke-width: 0.8; stroke-linecap: square"/>
     </g>
     <g id="line2d_16">
      <g>
       <use xlink:href="#m1e621e3ccf" x="562.82428" y="462.2" style="stroke: #000000; stroke-width: 0.8"/>
      </g>
     </g>
     <g id="text_8">
      <!-- 2020 -->
      <g transform="translate(550.09928 476.797656) scale(0.1 -0.1)">
       <use xlink:href="#DejaVuSans-15"/>
       <use xlink:href="#DejaVuSans-13" transform="translate(63.625 0)"/>
       <use xlink:href="#DejaVuSans-15" transform="translate(127.25 0)"/>
       <use xlink:href="#DejaVuSans-13" transform="translate(190.875 0)"/>
      </g>
     </g>
    </g>
    <g id="xtick_9">
     <g id="line2d_17">
      <path d="M 629.171759 462.2 
L 629.171759 27.436719 
" clip-path="url(#p81ee71c49e)" style="fill: none; stroke: #b0b0b0; stroke-opacity: 0.3; stroke-width: 0.8; stroke-linecap: square"/>
     </g>
     <g id="line2d_18">
      <g>
       <use xlink:href="#m1e621e3ccf" x="629.171759" y="462.2" style="stroke: #000000; stroke-width: 0.8"/>
      </g>
     </g>
     <g id="text_9">
      <!-- 2024 -->
      <g transform="translate(616.446759 476.797656) scale(0.1 -0.1)">
       <use xlink:href="#DejaVuSans-15"/>
       <use xlink:href="#DejaVuSans-13" transform="translate(63.625 0)"/>
       <use xlink:href="#DejaVuSans-15" transform="translate(127.25 0)"/>
       <use xlink:href="#DejaVuSans-17" transform="translate(190.875 0)"/>
      </g>
     </g>
    </g>
    <g id="xtick_10">
     <g id="line2d_19">
      <path d="M 695.519237 462.2 
L 695.519237 27.436719 
" clip-path="url(#p81ee71c49e)" style="fill: none; stroke: #b0b0b0; stroke-opacity: 0.3; stroke-width: 0.8; stroke-linecap: square"/>
     </g>
     <g id="line2d_20">
      <g>
       <use xlink:href="#m1e621e3ccf" x="695.519237" y="462.2" style="stroke: #000000; stroke-width: 0.8"/>
      </g>
     </g>
     <g id="text_10">
      <!-- 2028 -->
      <g transform="translate(682.794237 476.797656) scale(0.1 -0.1)">
       <use xlink:href="#DejaVuSans-15"/>
       <use xlink:href="#DejaVuSans-13" transform="translate(63.625 0)"/>
       <use xlink:href="#DejaVuSans-15" transform="translate(127.25 0)"/>
       <use xlink:href="#DejaVuSans-1b" transform="translate(190.875 0)"/>
      </g>
     </g>
    </g>
    <g id="text_11">
     <!-- Year -->
     <g transform="translate(362.142145 490.797656) scale(0.1 -0.1)">
      <defs>
       <path id="DejaVuSans-3c" d="M -13 4666 
L 666 4666 
L 1959 2747 
L 3244 4666 
L 3922 4666 
L 2272 2222 
L 2272 0 
L 1638 0 
L 1638 2222 
L -13 4666 
z
" transform="scale(0.015625)"/>
       <path id="DejaVuSans-48" d="M 3597 1894 
L 3597 1613 
L 953 1613 
Q 991 1019 1311 708 
Q 1631 397 2203 397 
Q 2534 397 2845 478 
Q 3156 559 3463 722 
L 3463 178 
Q 3153 47 2828 -22 
Q 2503 -91 2169 -91 
Q 1331 -91 842 396 
Q 353 884 353 1716 
Q 353 2575 817 3079 
Q 1281 3584 2069 3584 
Q 2775 3584 3186 3129 
Q 3597 2675 3597 1894 
z
M 3022 2063 
Q 3016 2534 2758 2815 
Q 2500 3097 2075 3097 
Q 1594 3097 1305 2825 
Q 1016 2553 972 2059 
L 3022 2063 
z
" transform="scale(0.015625)"/>
       <path id="DejaVuSans-44" d="M 2194 1759 
Q 1497 1759 1228 1600 
Q 959 1441 959 1056 
Q 959 750 1161 570 
Q 1363 391 1709 391 
Q 2188 391 2477 730 
Q 2766 1069 2766 1631 
L 2766 1759 
L 2194 1759 
z
M 3341 1997 
L 3341 0 
L 2766 0 
L 2766 531 
Q 2569 213 2275 61 
Q 1981 -91 1556 -91 
Q 1019 -91 701 211 
Q 384 513 384 1019 
Q 384 1609 779 1909 
Q 1175 2209 1959 2209 
L 2766 2209 
L 2766 2266 
Q 2766 2663 2505 2880 
Q 2244 3097 1772 3097 
Q 1472 3097 1187 3025 
Q 903 2953 641 2809 
L 641 3341 
Q 956 3463 1253 3523 
Q 1550 3584 1831 3584 
Q 2591 3584 2966 3190 
Q 3341 2797 3341 1997 
z
" transform="scale(0.015625)"/>
       <path id="DejaVuSans-55" d="M 2631 2963 
Q 2534 3019 2420 3045 
Q 2306 3072 2169 3072 
Q 1681 3072 1420 2755 
Q 1159 2438 1159 1844 
L 1159 0 
L 581 0 
L 581 3500 
L 1159 3500 
L 1159 2956 
Q 1341 3275 1631 3429 
Q 1922 3584 2338 3584 
Q 2397 3584 2469 3576 
Q 2541 3569 2628 3553 
L 2631 2963 
z
" transform="scale(0.015625)"/>
      </defs>
      <use xlink:href="#DejaVuSans-3c"/>
      <use xlink:href="#DejaVuSans-48" transform="translate(47.796875 0)"/>
      <use xlink:href="#DejaVuSans-44" transform="translate(109.328125 0)"/>
      <use xlink:href="#DejaVuSans-55" transform="translate(170.609375 0)"/>
     </g>
    </g>
   </g>
   <g id="matplotlib.axis_2">
    <g id="ytick_1">
     <g id="line2d_21">
      <path d="M 45.082344 445.281481 
L 700.37382 445.281481 
" clip-path="url(#p81ee71c49e)" style="fill: none; stroke: #b0b0b0; stroke-opacity: 0.3; stroke-width: 0.8; stroke-linecap: square"/>
     </g>
     <g id="line2d_22">
      <defs>
       <path id="m7da2fab743" d="M 0 0 
L -3.5 0 
" style="stroke: #000000; stroke-width: 0.8"/>
      </defs>
      <g>
       <use xlink:href="#m7da2fab743" x="45.082344" y="445.281481" style="stroke: #000000; stroke-width: 0.8"/>
      </g>
     </g>
     <g id="text_12">
      <!-- 0 -->
      <g transform="translate(31.719844 449.080309) scale(0.1 -0.1)">
       <use xlink:href="#DejaVuSans-13"/>
      </g>
     </g>
    </g>
    <g id="ytick_2">
     <g id="line2d_23">
      <path d="M 45.082344 388.41251 
L 700.37382 388.41251 
" clip-path="url(#p81ee71c49e)" style="fill: none; stroke: #b0b0b0; stroke-opacity: 0.3; stroke-width: 0.8; stroke-linecap: square"/>
     </g>
     <g id="line2d_24">
      <g>
       <use xlink:href="#m7da2fab743" x="45.082344" y="388.41251" style="stroke: #000000; stroke-width: 0.8"/>
      </g>
     </g>
     <g id="text_13">
      <!-- 2 -->
      <g transform="translate(31.719844 392.211339) scale(0.1 -0.1)">
       <use xlink:href="#DejaVuSans-15"/>
      </g>
     </g>
    </g>
    <g id="ytick_3">
     <g id="line2d_25">
      <path d="M 45.082344 331.54354 
L 700.37382 331.54354 
" clip-path="url(#p81ee71c49e)" style="fill: none; stroke: #b0b0b0; stroke-opacity: 0.3; stroke-width: 0.8; stroke-linecap: square"/>
     </g>
     <g id="line2d_26">
      <g>
       <use xlink:href="#m7da2fab743" x="45.082344" y="331.54354" style="stroke: #000000; stroke-width: 0.8"/>
      </g>
     </g>
     <g id="text_14">
      <!-- 4 -->
      <g transform="translate(31.719844 335.342368) scale(0.1 -0.1)">
       <use xlink:href="#DejaVuSans-17"/>
      </g>
     </g>
    </g>
    <g id="ytick_4">
     <g id="line2d_27">
      <path d="M 45.082344 274.674569 
L 700.37382 274.674569 
" clip-path="url(#p81ee71c49e)" style="fill: none; stroke: #b0b0b0; stroke-opacity: 0.3; stroke-width: 0.8; stroke-linecap: square"/>
     </g>
     <g id="line2d_28">
      <g>
       <use xlink:href="#m7da2fab743" x="45.082344" y="274.674569" style="stroke: #000000; stroke-width: 0.8"/>
      </g>
     </g>
     <g id="text_15">
      <!-- 6 -->
      <g transform="translate(31.719844 278.473397) scale(0.1 -0.1)">
       <use xlink:href="#DejaVuSans-19"/>
      </g>
     </g>
    </g>
    <g id="ytick_5">
     <g id="line2d_29">
      <path d="M 45.082344 217.805598 
L 700.37382 217.805598 
" clip-path="url(#p81ee71c49e)" style="fill: none; stroke: #b0b0b0; stroke-opacity: 0.3; stroke-width: 0.8; stroke-linecap: square"/>
     </g>
     <g id="line2d_30">
      <g>
       <use xlink:href="#m7da2fab743" x="45.082344" y="217.805598" style="stroke: #000000; stroke-width: 0.8"/>
      </g>
     </g>
     <g id="text_16">
      <!-- 8 -->
      <g transform="translate(31.719844 221.604426) scale(0.1 -0.1)">
       <use xlink:href="#DejaVuSans-1b"/>
      </g>
     </g>
    </g>
    <g id="ytick_6">
     <g id="line2d_31">
      <path d="M 45.082344 160.936628 
L 700.37382 160.936628 
" clip-path="url(#p81ee71c49e)" style="fill: none; stroke: #b0b0b0; stroke-opacity: 0.3; stroke-width: 0.8; stroke-linecap: square"/>
     </g>
     <g id="line2d_32">
      <g>
       <use xlink:href="#m7da2fab743" x="45.082344" y="160.936628" style="stroke: #000000; stroke-width: 0.8"/>
      </g>
     </g>
     <g id="text_17">
      <!-- 10 -->
      <g transform="translate(25.357344 164.735456) scale(0.1 -0.1)">
       <use xlink:href="#DejaVuSans-14"/>
       <use xlink:href="#DejaVuSans-13" transform="translate(63.625 0)"/>
      </g>
     </g>
    </g>
    <g id="ytick_7">
     <g id="line2d_33">
      <path d="M 45.082344 104.067657 
L 700.37382 104.067657 
" clip-path="url(#p81ee71c49e)" style="fill: none; stroke: #b0b0b0; stroke-opacity: 0.3; stroke-width: 0.8; stroke-linecap: square"/>
     </g>
     <g id="line2d_34">
      <g>
       <use xlink:href="#m7da2fab743" x="45.082344" y="104.067657" style="stroke: #000000; stroke-width: 0.8"/>
      </g>
     </g>
     <g id="text_18">
      <!-- 12 -->
      <g transform="translate(25.357344 107.866485) scale(0.1 -0.1)">
       <use xlink:href="#DejaVuSans-14"/>
       <use xlink:href="#DejaVuSans-15" transform="translate(63.625 0)"/>
      </g>
     </g>
    </g>
    <g id="ytick_8">
     <g id="line2d_35">
      <path d="M 45.082344 47.198686 
L 700.37382 47.198686 
" clip-path="url(#p81ee71c49e)" style="fill: none; stroke: #b0b0b0; stroke-opacity: 0.3; stroke-width: 0.8; stroke-linecap: square"/>
     </g>
     <g id="line2d_36">
      <g>
       <use xlink:href="#m7da2fab743" x="45.082344" y="47.198686" style="stroke: #000000; stroke-width: 0.8"/>
      </g>
     </g>
     <g id="text_19">
      <!-- 14 -->
      <g transform="translate(25.357344 50.997514) scale(0.1 -0.1)">
       <use xlink:href="#DejaVuSans-14"/>
       <use xlink:href="#DejaVuSans-17" transform="translate(63.625 0)"/>
      </g>
     </g>
    </g>
    <g id="text_20">
     <!-- Cash rate (%) -->
     <g transform="translate(18.955 279.133984) rotate(-90) scale(0.1 -0.1)">
      <defs>
       <path id="DejaVuSans-26" d="M 4122 4306 
L 4122 3641 
Q 3803 3938 3442 4084 
Q 3081 4231 2675 4231 
Q 1875 4231 1450 3742 
Q 1025 3253 1025 2328 
Q 1025 1406 1450 917 
Q 1875 428 2675 428 
Q 3081 428 3442 575 
Q 3803 722 4122 1019 
L 4122 359 
Q 3791 134 3420 21 
Q 3050 -91 2638 -91 
Q 1578 -91 968 557 
Q 359 1206 359 2328 
Q 359 3453 968 4101 
Q 1578 4750 2638 4750 
Q 3056 4750 3426 4639 
Q 3797 4528 4122 4306 
z
" transform="scale(0.015625)"/>
       <path id="DejaVuSans-56" d="M 2834 3397 
L 2834 2853 
Q 2591 2978 2328 3040 
Q 2066 3103 1784 3103 
Q 1356 3103 1142 2972 
Q 928 2841 928 2578 
Q 928 2378 1081 2264 
Q 1234 2150 1697 2047 
L 1894 2003 
Q 2506 1872 2764 1633 
Q 3022 1394 3022 966 
Q 3022 478 2636 193 
Q 2250 -91 1575 -91 
Q 1294 -91 989 -36 
Q 684 19 347 128 
L 347 722 
Q 666 556 975 473 
Q 1284 391 1588 391 
Q 1994 391 2212 530 
Q 2431 669 2431 922 
Q 2431 1156 2273 1281 
Q 2116 1406 1581 1522 
L 1381 1569 
Q 847 1681 609 1914 
Q 372 2147 372 2553 
Q 372 3047 722 3315 
Q 1072 3584 1716 3584 
Q 2034 3584 2315 3537 
Q 2597 3491 2834 3397 
z
" transform="scale(0.015625)"/>
       <path id="DejaVuSans-4b" d="M 3513 2113 
L 3513 0 
L 2938 0 
L 2938 2094 
Q 2938 2591 2744 2837 
Q 2550 3084 2163 3084 
Q 1697 3084 1428 2787 
Q 1159 2491 1159 1978 
L 1159 0 
L 581 0 
L 581 4863 
L 1159 4863 
L 1159 2956 
Q 1366 3272 1645 3428 
Q 1925 3584 2291 3584 
Q 2894 3584 3203 3211 
Q 3513 2838 3513 2113 
z
" transform="scale(0.015625)"/>
       <path id="DejaVuSans-3" transform="scale(0.015625)"/>
       <path id="DejaVuSans-57" d="M 1172 4494 
L 1172 3500 
L 2356 3500 
L 2356 3053 
L 1172 3053 
L 1172 1153 
Q 1172 725 1289 603 
Q 1406 481 1766 481 
L 2356 481 
L 2356 0 
L 1766 0 
Q 1100 0 847 248 
Q 594 497 594 1153 
L 594 3053 
L 172 3053 
L 172 3500 
L 594 3500 
L 594 4494 
L 1172 4494 
z
" transform="scale(0.015625)"/>
       <path id="DejaVuSans-b" d="M 1984 4856 
Q 1566 4138 1362 3434 
Q 1159 2731 1159 2009 
Q 1159 1288 1364 580 
Q 1569 -128 1984 -844 
L 1484 -844 
Q 1016 -109 783 600 
Q 550 1309 550 2009 
Q 550 2706 781 3412 
Q 1013 4119 1484 4856 
L 1984 4856 
z
" transform="scale(0.015625)"/>
       <path id="DejaVuSans-8" d="M 4653 2053 
Q 4381 2053 4226 1822 
Q 4072 1591 4072 1178 
Q 4072 772 4226 539 
Q 4381 306 4653 306 
Q 4919 306 5073 539 
Q 5228 772 5228 1178 
Q 5228 1588 5073 1820 
Q 4919 2053 4653 2053 
z
M 4653 2450 
Q 5147 2450 5437 2106 
Q 5728 1763 5728 1178 
Q 5728 594 5436 251 
Q 5144 -91 4653 -91 
Q 4153 -91 3862 251 
Q 3572 594 3572 1178 
Q 3572 1766 3864 2108 
Q 4156 2450 4653 2450 
z
M 1428 4353 
Q 1159 4353 1004 4120 
Q 850 3888 850 3481 
Q 850 3069 1003 2837 
Q 1156 2606 1428 2606 
Q 1700 2606 1854 2837 
Q 2009 3069 2009 3481 
Q 2009 3884 1853 4118 
Q 1697 4353 1428 4353 
z
M 4250 4750 
L 4750 4750 
L 1831 -91 
L 1331 -91 
L 4250 4750 
z
M 1428 4750 
Q 1922 4750 2215 4408 
Q 2509 4066 2509 3481 
Q 2509 2891 2217 2550 
Q 1925 2209 1428 2209 
Q 931 2209 642 2551 
Q 353 2894 353 3481 
Q 353 4063 643 4406 
Q 934 4750 1428 4750 
z
" transform="scale(0.015625)"/>
       <path id="DejaVuSans-c" d="M 513 4856 
L 1013 4856 
Q 1481 4119 1714 3412 
Q 1947 2706 1947 2009 
Q 1947 1309 1714 600 
Q 1481 -109 1013 -844 
L 513 -844 
Q 928 -128 1133 580 
Q 1338 1288 1338 2009 
Q 1338 2731 1133 3434 
Q 928 4138 513 4856 
z
" transform="scale(0.015625)"/>
      </defs>
      <use xlink:href="#DejaVuSans-26"/>
      <use xlink:href="#DejaVuSans-44" transform="translate(69.828125 0)"/>
      <use xlink:href="#DejaVuSans-56" transform="translate(131.109375 0)"/>
      <use xlink:href="#DejaVuSans-4b" transform="translate(183.203125 0)"/>
      <use xlink:href="#DejaVuSans-3" transform="translate(246.578125 0)"/>
      <use xlink:href="#DejaVuSans-55" transform="translate(278.359375 0)"/>
      <use xlink:href="#DejaVuSans-44" transform="translate(319.46875 0)"/>
      <use xlink:href="#DejaVuSans-57" transform="translate(380.75 0)"/>
      <use xlink:href="#DejaVuSans-48" transform="translate(419.953125 0)"/>
      <use xlink:href="#DejaVuSans-3" transform="translate(481.484375 0)"/>
      <use xlink:href="#DejaVuSans-b" transform="translate(513.265625 0)"/>
      <use xlink:href="#DejaVuSans-8" transform="translate(552.28125 0)"/>
      <use xlink:href="#DejaVuSans-c" transform="translate(647.296875 0)"/>
     </g>
    </g>
   </g>
   <g id="line2d_37">
    <path d="M 74.86832 47.198686 
L 77.638475 47.198686 
L 77.638475 63.406343 
L 79.046258 63.406343 
L 79.046258 75.633171 
L 80.40863 75.633171 
L 80.40863 87.575655 
L 81.816413 87.575655 
L 81.816413 104.067657 
L 85.903527 104.067657 
L 85.903527 116.863175 
L 87.265898 116.863175 
L 87.265898 133.070832 
L 88.673682 133.070832 
L 88.673682 146.719385 
L 92.85162 146.719385 
L 92.85162 173.732146 
L 94.213991 173.732146 
L 94.213991 175.15387 
L 95.621775 175.15387 
L 95.621775 199.607528 
L 96.984146 199.607528 
L 96.984146 203.588356 
L 98.39193 203.588356 
L 98.39193 226.620289 
L 99.799713 226.620289 
L 99.799713 232.022841 
L 103.886827 232.022841 
L 103.886827 256.476498 
L 105.294611 256.476498 
L 105.294611 260.457326 
L 106.656982 260.457326 
L 106.656982 277.233673 
L 108.064765 277.233673 
L 108.064765 281.78319 
L 117.692189 281.78319 
L 117.692189 286.048363 
L 119.099972 286.048363 
L 119.099972 296.000433 
L 123.232498 296.000433 
L 123.232498 296.569123 
L 124.640282 296.569123 
L 124.640282 310.217676 
L 141.215799 310.217676 
L 141.215799 299.981261 
L 142.623582 299.981261 
L 142.623582 288.891812 
L 143.985953 288.891812 
L 143.985953 280.645811 
L 145.393737 280.645811 
L 145.393737 260.457326 
L 146.756108 260.457326 
L 146.756108 244.818359 
L 148.163892 244.818359 
L 148.163892 232.022841 
L 173.00446 232.022841 
L 173.00446 232.591531 
L 174.412244 232.591531 
L 174.412244 246.240084 
L 178.590183 246.240084 
L 178.590183 258.466912 
L 179.952554 258.466912 
L 179.952554 269.556362 
L 181.360337 269.556362 
L 181.360337 274.674569 
L 186.809822 274.674569 
L 186.809822 278.655397 
L 188.217606 278.655397 
L 188.217606 288.891812 
L 189.579977 288.891812 
L 189.579977 290.029191 
L 190.987761 290.029191 
L 190.987761 303.109054 
L 213.103587 303.109054 
L 213.103587 309.933331 
L 214.51137 309.933331 
L 214.51137 310.217676 
L 228.316732 310.217676 
L 228.316732 303.677744 
L 229.679103 303.677744 
L 229.679103 303.109054 
L 232.494671 303.109054 
L 232.494671 289.460501 
L 233.811629 289.460501 
L 233.811629 288.891812 
L 235.219413 288.891812 
L 235.219413 282.636225 
L 236.581784 282.636225 
L 236.581784 275.243259 
L 237.989568 275.243259 
L 237.989568 274.674569 
L 240.759723 274.674569 
L 240.759723 267.850293 
L 242.167506 267.850293 
L 242.167506 267.565948 
L 249.1156 267.565948 
L 249.1156 278.939742 
L 250.387146 278.939742 
L 250.387146 287.470087 
L 251.79493 287.470087 
L 251.79493 301.402985 
L 253.157301 301.402985 
L 253.157301 303.109054 
L 258.743023 303.109054 
L 258.743023 309.364641 
L 260.105394 309.364641 
L 260.105394 316.757607 
L 261.513178 316.757607 
L 261.513178 317.326297 
L 262.875549 317.326297 
L 262.875549 323.581884 
L 264.283333 323.581884 
L 264.283333 324.434918 
L 269.732817 324.434918 
L 269.732817 318.748021 
L 271.140601 318.748021 
L 271.140601 311.07071 
L 272.502972 311.07071 
L 272.502972 310.217676 
L 294.664211 310.217676 
L 294.664211 303.677744 
L 296.026582 303.677744 
L 296.026582 296.569123 
L 297.434366 296.569123 
L 297.434366 296.000433 
L 316.734625 296.000433 
L 316.734625 289.176157 
L 318.142408 289.176157 
L 318.142408 288.891812 
L 336.080296 288.891812 
L 336.080296 282.35188 
L 337.48808 282.35188 
L 337.48808 281.78319 
L 340.258235 281.78319 
L 340.258235 274.958914 
L 341.666018 274.958914 
L 341.666018 274.674569 
L 344.436173 274.674569 
L 344.436173 269.272017 
L 345.798544 269.272017 
L 345.798544 267.565948 
L 356.833751 267.565948 
L 356.833751 261.879051 
L 358.241535 261.879051 
L 358.241535 260.457326 
L 361.011689 260.457326 
L 361.011689 254.770429 
L 362.374061 254.770429 
L 362.374061 253.348705 
L 365.189628 253.348705 
L 365.189628 247.377463 
L 366.506587 247.377463 
L 366.506587 239.984497 
L 367.91437 239.984497 
L 367.91437 239.131462 
L 374.862464 239.131462 
L 374.862464 245.671394 
L 376.224835 245.671394 
L 376.224835 269.556362 
L 377.632618 269.556362 
L 377.632618 293.725674 
L 378.99499 293.725674 
L 378.99499 321.59147 
L 380.402773 321.59147 
L 380.402773 324.434918 
L 381.810557 324.434918 
L 381.810557 350.025955 
L 383.082103 350.025955 
L 383.082103 352.869404 
L 384.489887 352.869404 
L 384.489887 358.271956 
L 385.852258 358.271956 
L 385.852258 359.978025 
L 392.800351 359.978025 
L 392.800351 354.006783 
L 394.208135 354.006783 
L 394.208135 346.329472 
L 395.570506 346.329472 
L 395.570506 338.936506 
L 396.97829 338.936506 
L 396.97829 338.652161 
L 399.65762 338.652161 
L 399.65762 332.112229 
L 401.065403 332.112229 
L 401.065403 325.287953 
L 402.427775 325.287953 
L 402.427775 317.894987 
L 403.835558 317.894987 
L 403.835558 317.326297 
L 410.783652 317.326297 
L 410.783652 310.786365 
L 412.146023 310.786365 
L 412.146023 310.217676 
L 427.359168 310.217676 
L 427.359168 317.041952 
L 428.721539 317.041952 
L 428.721539 323.013194 
L 430.129323 323.013194 
L 430.129323 324.434918 
L 435.62422 324.434918 
L 435.62422 338.083471 
L 437.032004 338.083471 
L 437.032004 344.623403 
L 438.394375 344.623403 
L 438.394375 345.760782 
L 442.572313 345.760782 
L 442.572313 352.300714 
L 443.980097 352.300714 
L 443.980097 352.869404 
L 445.342468 352.869404 
L 445.342468 359.124991 
L 446.750252 359.124991 
L 446.750252 359.978025 
L 452.199737 359.978025 
L 452.199737 365.664922 
L 453.60752 365.664922 
L 453.60752 367.086646 
L 456.377675 367.086646 
L 456.377675 372.773544 
L 457.785459 372.773544 
L 457.785459 374.195268 
L 481.309069 374.195268 
L 481.309069 380.450855 
L 482.580615 380.450855 
L 482.580615 381.303889 
L 485.35077 381.303889 
L 485.35077 387.275131 
L 486.758554 387.275131 
L 486.758554 388.41251 
L 501.971699 388.41251 
L 501.971699 394.952442 
L 503.379482 394.952442 
L 503.379482 395.521132 
L 506.149637 395.521132 
L 506.149637 402.061063 
L 507.557421 402.061063 
L 507.557421 402.629753 
L 553.106032 402.629753 
L 553.106032 408.88534 
L 554.468403 408.88534 
L 554.468403 416.278306 
L 555.876187 416.278306 
L 555.876187 416.846996 
L 558.646342 416.846996 
L 558.646342 423.671272 
L 560.054125 423.671272 
L 560.054125 423.955617 
L 565.549023 423.955617 
L 565.549023 433.054652 
L 566.956806 433.054652 
L 566.956806 438.17286 
L 576.675054 438.17286 
L 576.675054 442.153688 
L 578.037426 442.153688 
L 578.037426 442.438033 
L 601.470211 442.438033 
L 601.470211 435.898101 
L 602.877994 435.898101 
L 602.877994 424.524307 
L 604.240365 424.524307 
L 604.240365 408.88534 
L 605.648149 408.88534 
L 605.648149 393.815063 
L 607.055933 393.815063 
L 607.055933 381.303889 
L 608.418304 381.303889 
L 608.418304 371.920509 
L 609.826087 371.920509 
L 609.826087 364.527543 
L 611.188459 364.527543 
L 611.188459 358.556301 
L 612.596242 358.556301 
L 612.596242 357.134577 
L 614.004026 357.134577 
L 614.004026 351.732024 
L 615.275572 351.732024 
L 615.275572 344.623403 
L 616.683356 344.623403 
L 616.683356 342.917334 
L 618.045727 342.917334 
L 618.045727 336.377402 
L 619.453511 336.377402 
L 619.453511 330.121815 
L 620.815882 330.121815 
L 620.815882 328.700091 
L 626.401604 328.700091 
L 626.401604 323.297539 
L 627.763975 323.297539 
L 627.763975 321.59147 
L 647.200471 321.59147 
L 647.200471 324.434918 
L 648.472018 324.434918 
L 648.472018 328.700091 
L 651.242173 328.700091 
L 651.242173 331.259195 
L 652.649956 331.259195 
L 652.649956 335.808713 
L 655.420111 335.808713 
L 655.420111 340.073885 
L 656.827895 340.073885 
L 656.827895 342.917334 
L 663.775988 342.917334 
L 663.775988 336.377402 
L 665.047534 336.377402 
L 665.047534 332.680919 
L 666.455318 332.680919 
L 666.455318 328.700091 
L 667.817689 328.700091 
L 667.817689 322.728849 
L 669.225473 322.728849 
L 669.225473 321.59147 
L 670.587844 321.59147 
L 670.587844 321.59147 
" clip-path="url(#p81ee71c49e)" style="fill: none; stroke: #2b7a78; stroke-width: 1.8; stroke-linecap: square"/>
   </g>
   <g id="patch_3">
    <path d="M 45.082344 462.2 
L 45.082344 27.436719 
" style="fill: none; stroke: #000000; stroke-width: 0.8; stroke-linejoin: miter; stroke-linecap: square"/>
   </g>
   <g id="patch_4">
    <path d="M 700.37382 462.2 
L 700.37382 27.436719 
" style="fill: none; stroke: #000000; stroke-width: 0.8; stroke-linejoin: miter; stroke-linecap: square"/>
   </g>
   <g id="patch_5">
    <path d="M 45.082344 462.2 
L 700.37382 462.2 
" style="fill: none; stroke: #000000; stroke-width: 0.8; stroke-linejoin: miter; stroke-linecap: square"/>
   </g>
   <g id="patch_6">
    <path d="M 45.082344 27.436719 
L 700.37382 27.436719 
" style="fill: none; stroke: #000000; stroke-width: 0.8; stroke-linejoin: miter; stroke-linecap: square"/>
   </g>
   <g id="text_21">
    <!-- RBA Cash Rate Target -->
    <g transform="translate(296.630426 21.436719) scale(0.14 -0.14)">
     <defs>
      <path id="DejaVuSans-35" d="M 2841 2188 
Q 3044 2119 3236 1894 
Q 3428 1669 3622 1275 
L 4263 0 
L 3584 0 
L 2988 1197 
Q 2756 1666 2539 1819 
Q 2322 1972 1947 1972 
L 1259 1972 
L 1259 0 
L 628 0 
L 628 4666 
L 2053 4666 
Q 2853 4666 3247 4331 
Q 3641 3997 3641 3322 
Q 3641 2881 3436 2590 
Q 3231 2300 2841 2188 
z
M 1259 4147 
L 1259 2491 
L 2053 2491 
Q 2509 2491 2742 2702 
Q 2975 2913 2975 3322 
Q 2975 3731 2742 3939 
Q 2509 4147 2053 4147 
L 1259 4147 
z
" transform="scale(0.015625)"/>
      <path id="DejaVuSans-25" d="M 1259 2228 
L 1259 519 
L 2272 519 
Q 2781 519 3026 730 
Q 3272 941 3272 1375 
Q 3272 1813 3026 2020 
Q 2781 2228 2272 2228 
L 1259 2228 
z
M 1259 4147 
L 1259 2741 
L 2194 2741 
Q 2656 2741 2882 2914 
Q 3109 3088 3109 3444 
Q 3109 3797 2882 3972 
Q 2656 4147 2194 4147 
L 1259 4147 
z
M 628 4666 
L 2241 4666 
Q 2963 4666 3353 4366 
Q 3744 4066 3744 3513 
Q 3744 3084 3544 2831 
Q 3344 2578 2956 2516 
Q 3422 2416 3680 2098 
Q 3938 1781 3938 1306 
Q 3938 681 3513 340 
Q 3088 0 2303 0 
L 628 0 
L 628 4666 
z
" transform="scale(0.015625)"/>
      <path id="DejaVuSans-24" d="M 2188 4044 
L 1331 1722 
L 3047 1722 
L 2188 4044 
z
M 1831 4666 
L 2547 4666 
L 4325 0 
L 3669 0 
L 3244 1197 
L 1141 1197 
L 716 0 
L 50 0 
L 1831 4666 
z
" transform="scale(0.015625)"/>
      <path id="DejaVuSans-37" d="M -19 4666 
L 3928 4666 
L 3928 4134 
L 2272 4134 
L 2272 0 
L 1638 0 
L 1638 4134 
L -19 4134 
L -19 4666 
z
" transform="scale(0.015625)"/>
      <path id="DejaVuSans-4a" d="M 2906 1791 
Q 2906 2416 2648 2759 
Q 2391 3103 1925 3103 
Q 1463 3103 1205 2759 
Q 947 2416 947 1791 
Q 947 1169 1205 825 
Q 1463 481 1925 481 
Q 2391 481 2648 825 
Q 2906 1169 2906 1791 
z
M 3481 434 
Q 3481 -459 3084 -895 
Q 2688 -1331 1869 -1331 
Q 1566 -1331 1297 -1286 
Q 1028 -1241 775 -1147 
L 775 -588 
Q 1028 -725 1275 -790 
Q 1522 -856 1778 -856 
Q 2344 -856 2625 -561 
Q 2906 -266 2906 331 
L 2906 616 
Q 2728 306 2450 153 
Q 2172 0 1784 0 
Q 1141 0 747 490 
Q 353 981 353 1791 
Q 353 2603 747 3093 
Q 1141 3584 1784 3584 
Q 2172 3584 2450 3431 
Q 2728 3278 2906 2969 
L 2906 3500 
L 3481 3500 
L 3481 434 
z
" transform="scale(0.015625)"/>
     </defs>
     <use xlink:href="#DejaVuSans-35"/>
     <use xlink:href="#DejaVuSans-25" transform="translate(69.484375 0)"/>
     <use xlink:href="#DejaVuSans-24" transform="translate(138.09375 0)"/>
     <use xlink:href="#DejaVuSans-3" transform="translate(206.5 0)"/>
     <use xlink:href="#DejaVuSans-26" transform="translate(238.28125 0)"/>
     <use xlink:href="#DejaVuSans-44" transform="translate(308.109375 0)"/>
     <use xlink:href="#DejaVuSans-56" transform="translate(369.390625 0)"/>
     <use xlink:href="#DejaVuSans-4b" transform="translate(421.484375 0)"/>
     <use xlink:href="#DejaVuSans-3" transform="translate(484.859375 0)"/>
     <use xlink:href="#DejaVuSans-35" transform="translate(516.640625 0)"/>
     <use xlink:href="#DejaVuSans-44" transform="translate(583.921875 0)"/>
     <use xlink:href="#DejaVuSans-57" transform="translate(645.203125 0)"/>
     <use xlink:href="#DejaVuSans-48" transform="translate(684.40625 0)"/>
     <use xlink:href="#DejaVuSans-3" transform="translate(745.9375 0)"/>
     <use xlink:href="#DejaVuSans-37" transform="translate(777.71875 0)"/>
     <use xlink:href="#DejaVuSans-44" transform="translate(822.25 0)"/>
     <use xlink:href="#DejaVuSans-55" transform="translate(883.53125 0)"/>
     <use xlink:href="#DejaVuSans-4a" transform="translate(922.890625 0)"/>
     <use xlink:href="#DejaVuSans-48" transform="translate(986.375 0)"/>
     <use xlink:href="#DejaVuSans-57" transform="translate(1047.90625 0)"/>
    </g>
   </g>
  </g>
 </g>
 <defs>
  <clipPath id="p81ee71c49e">
   <rect x="45.082344" y="27.436719" width="655.291477" height="434.763281"/>
  </clipPath>
 </defs>
</svg>
